
        <svg xmlns="http://www.w3.org/2000/svg" xmlns:xlink="http://www.w3.org/1999/xlink" version="1.1" width="2565.187571118709" 
        height="3200" viewBox="0 0 2565.187571118709 3200">
			
			<g transform="scale(10.000000000000002) translate(10, 10)">
				<defs id="SvgjsDefs3174"><linearGradient id="SvgjsLinearGradient3177"><stop id="SvgjsStop3178" stop-color="#8f5e25" offset="0"></stop><stop id="SvgjsStop3179" stop-color="#fbf4a1" offset="0.5"></stop><stop id="SvgjsStop3180" stop-color="#8f5e25" offset="1"></stop></linearGradient></defs><g id="SvgjsG3175" featureKey="nameFeature-0" transform="matrix(8.532422319491928,0,0,8.532422319491928,-6.825939483023947,-97.61087520603267)" fill="url(#SvgjsLinearGradient3177)"><path d="M26.28 46.6 c-5.04 0 -9.76 -2.08 -11.84 -6.04 c-7.28 0 -13.64 -3.6 -13.64 -14.56 c0 -9.44 5.56 -14.56 12.84 -14.56 c7.32 0 13.68 3.6 13.68 14.56 c0 6.12 -2.36 10.44 -6 12.72 c0 0 3.8 2 7.2 -1.16 l0 8.88 c-0.72 0.12 -1.48 0.16 -2.24 0.16 z M14.2 34.8 c2.76 0 4.84 -3.12 4.84 -8.8 c0 -6.64 -2.36 -8.8 -5.12 -8.8 s-4.88 3.12 -4.88 8.8 c0 6.64 2.4 8.8 5.16 8.8 z"></path></g>
			</g>
		</svg>
	