
        <svg xmlns="http://www.w3.org/2000/svg" xmlns:xlink="http://www.w3.org/1999/xlink" version="1.1" width="3233.355854059922" height="1010.2588626874062" viewBox="0 0 3233.355854059922 1010.2588626874062">
			
			<g transform="scale(11.667792702996106) translate(10, 10)">
				<defs id="SvgjsDefs1385"/><g id="SvgjsG1386" featureKey="G09qjj-0" transform="matrix(0.8784335598786329,0,0,0.8784335598786329,-4.392167799393165,-10.716889262971417)" fill="#fff"><g xmlns="http://www.w3.org/2000/svg"><path d="M51.8,14.7c0-1.4-1.1-2.5-2.5-2.5H19.6c-1.4,0-2.5,1.1-2.5,2.5v3.5h34.6V14.7z"/><path d="M77.7,51c3.6,0,6.9,1,9.7,2.8V42.3c0-1.4-1.1-2.5-2.5-2.5H68V28c0-0.7-0.5-1.2-1.1-1.3V13.4h-4.5v1.8h2.6   v11.6c-0.5,0.2-0.9,0.6-0.9,1.2v11.9h-9l-3.4-19.2H17.2l-2.3,19.2c-2.1,1.6-3.6,3.8-4.4,5.2c-0.4,0.7-0.3,1.7,0.3,2.3l0.8,0.8   c4-2.9,8.9-4.7,14.2-4.7c12.6,0,22.9,9.7,23.8,22.1h10.1C61.4,57.2,68.8,51,77.7,51z M34.5,37.7c0,0.9-0.8,1.7-1.7,1.7H21.3   c-1,0-1.8-0.8-1.7-1.8l0.7-12c0.1-0.9,0.8-1.6,1.7-1.6h10.8c0.9,0,1.7,0.8,1.7,1.7V37.7z M50,47.5h-3.8c-0.5,0-1-0.2-1.4-0.5   l-6.4-4.9c-0.6-0.4-0.9-1.1-0.9-1.9V26.4c0-1.3,1.1-2.4,2.4-2.4h7.5c1.2,0,2.2,0.9,2.3,2l2.7,18.7C52.5,46.2,51.4,47.5,50,47.5z"/><path d="M45,64c-0.2-1.5-0.6-2.9-1.1-4.2l1.2-1.2c-0.7-1.5-1.5-3-2.5-4.3L41,54.8c-0.9-1.1-1.9-2.2-3.1-3.1l0.4-1.6   c-1.3-1-2.8-1.8-4.3-2.5L33,48.9c-1.3-0.5-2.7-0.9-4.2-1.1l-0.4-1.6C27.6,46,26.8,46,25.9,46c-0.8,0-1.7,0.1-2.5,0.2L23,47.7   c-1.5,0.2-2.9,0.6-4.2,1.1l-1.2-1.2c-1.5,0.7-3,1.5-4.3,2.5l0.4,1.6c-1.1,0.9-2.2,1.9-3.1,3.1l-1.6-0.4c-1,1.3-1.8,2.8-2.5,4.3   l1.2,1.2C7.4,61.1,7,62.5,6.8,64l-1.6,0.4C5.1,65.2,5,66,5,66.9c0,0.8,0.1,1.7,0.2,2.5l1.6,0.4C7,71.2,7.4,72.6,7.9,74l-1.2,1.2   c0.7,1.5,1.5,3,2.5,4.3l1.6-0.4c0.9,1.1,1.9,2.2,3.1,3.1l-0.4,1.6c1.3,1,2.8,1.8,4.3,2.5l1.2-1.2c1.3,0.5,2.7,0.9,4.2,1.1l0.4,1.6   c0.8,0.1,1.6,0.2,2.5,0.2c0.8,0,1.7-0.1,2.5-0.2l0.4-1.6c1.5-0.2,2.9-0.6,4.2-1.1l1.2,1.2c1.5-0.7,3-1.5,4.3-2.5L38,82   c1.1-0.9,2.2-1.9,3.1-3.1l1.6,0.4c1-1.3,1.8-2.8,2.5-4.3L43.9,74c0.5-1.3,0.9-2.7,1.1-4.2l1.6-0.4c0.1-0.8,0.2-1.6,0.2-2.5   c0-0.8-0.1-1.7-0.2-2.5L45,64z M25.9,77.1c-5.6,0-10.2-4.6-10.2-10.2c0-5.6,4.6-10.2,10.2-10.2s10.2,4.6,10.2,10.2   C36.1,72.5,31.5,77.1,25.9,77.1z"/><path d="M94.9,72.2c0.1-0.7,0.1-1.3,0.1-2c0-0.7-0.1-1.3-0.1-2l-1.3-0.3c-0.2-1.2-0.5-2.3-0.9-3.3l1-0.9   c-0.5-1.2-1.2-2.4-2-3.4l-1.3,0.4c-0.7-0.9-1.5-1.7-2.4-2.4l0.4-1.3c-1.1-0.8-2.2-1.5-3.4-2l-0.9,1c-1.1-0.4-2.2-0.7-3.3-0.9   l-0.3-1.3c-0.7-0.1-1.3-0.1-2-0.1c-0.7,0-1.3,0.1-2,0.1L76,55c-1.2,0.2-2.3,0.5-3.3,0.9l-0.9-1c-1.2,0.5-2.4,1.2-3.4,2l0.4,1.3   c-0.9,0.7-1.7,1.5-2.4,2.4L65,60.2c-0.8,1.1-1.5,2.2-2,3.4l1,0.9c-0.4,1.1-0.7,2.2-0.9,3.3l-1.3,0.3c-0.1,0.7-0.1,1.3-0.1,2   c0,0.7,0.1,1.3,0.1,2l1.3,0.3c0.2,1.2,0.5,2.3,0.9,3.3l-1,0.9c0.5,1.2,1.2,2.4,2,3.4l1.3-0.4c0.7,0.9,1.5,1.7,2.4,2.4l-0.4,1.3   c1.1,0.8,2.2,1.5,3.4,2l0.9-1c1.1,0.4,2.2,0.7,3.3,0.9l0.3,1.3c0.7,0.1,1.3,0.1,2,0.1c0.7,0,1.3-0.1,2-0.1l0.3-1.3   c1.2-0.2,2.3-0.5,3.3-0.9l0.9,1c1.2-0.5,2.4-1.2,3.4-2L88,82.3c0.9-0.7,1.7-1.5,2.4-2.4l1.3,0.4c0.8-1.1,1.5-2.2,2-3.4l-1-0.9   c0.4-1.1,0.7-2.2,0.9-3.3L94.9,72.2z M78.3,78.8c-4.7,0-8.6-3.8-8.6-8.6c0-4.7,3.8-8.6,8.6-8.6c4.7,0,8.6,3.8,8.6,8.6   C86.9,75,83.1,78.8,78.3,78.8z"/><circle cx="25.9" cy="66.9" r="4.7"/><circle cx="78.3" cy="70.2" r="4.1"/></g></g><g id="SvgjsG1387" featureKey="0yvIkK-0" transform="matrix(1.6717914751217202,0,0,1.6717914751217202,97.29477232867659,8.841657410084654)" fill="#fff"><path d="M2.34 12.74 q0 2.58 1.75 4.3 t4.33 1.76 q2.54 -0.02 4.09 -1.76 t1.55 -4.3 q0 -2.74 -1.63 -4.4 t-4.25 -1.66 q-2.66 0 -4.24 1.69 t-1.6 4.37 z M8.2 5.48 q3.2 0.02 5.17 2.04 t2.01 5.22 q0 1.94 -0.99 3.69 t-2.55 2.33 l0 0.04 l4.42 0 l0 1.2 l-7.84 0 q-2.02 0 -3.74 -0.97 t-2.68 -2.63 t-0.98 -3.66 q0 -3.18 2.01 -5.2 t5.17 -2.06 z M21.7 20.24 q-1.76 0 -2.64 -0.99 t-0.88 -3.03 l0 -5.46 l1.2 0 l0 5.4 q0 1.5 0.57 2.25 t1.75 0.75 q1.46 0 2.32 -1 t0.88 -2.82 l0 -4.58 l1.2 0 l0 6.74 q0.04 1.02 0.1 2.5 l-1.2 0 q-0.02 -1.14 -0.08 -1.62 l-0.06 0 q-0.4 0.86 -1.27 1.36 t-1.89 0.5 z M29.6 10.76 l1.2 0 l0 9.24 l-1.2 0 l0 -9.24 z M30.2 6.199999999999999 q0.4 0 0.65 0.26 t0.25 0.64 t-0.25 0.64 t-0.65 0.26 q-0.38 0 -0.64 -0.26 t-0.26 -0.64 t0.26 -0.64 t0.64 -0.26 z M38.54 10.52 q2 0 3.44 1.6 l-0.96 0.72 q-1.16 -1.24 -2.5 -1.24 q-1.56 0 -2.59 1.06 t-1.05 2.72 q0 1.66 1.04 2.71 t2.6 1.07 q1.48 0 2.5 -1.28 l0.92 0.76 q-1.34 1.58 -3.4 1.6 q-2.1 0 -3.46 -1.36 t-1.4 -3.5 q0 -2.06 1.35 -3.44 t3.51 -1.42 z M43.82 4.880000000000001 l1.2 0 l0 10.08 l4.58 -4.2 l1.76 0 l-4.78 4.24 l5.32 5 l-1.82 0 l-5.06 -4.88 l0 4.88 l-1.2 0 l0 -15.12 z M60.18000000000001 5.48 q3.14 0 4.88 2.22 l-1.08 0.9 q-0.6 -0.9 -1.6 -1.41 t-2.2 -0.51 q-2.64 0 -4.3 1.74 t-1.7 4.5 q0 2.74 1.67 4.47 t4.33 1.77 q1.14 0 2.32 -0.57 t1.86 -1.63 l1.08 0.82 q-1.88 2.58 -5.26 2.58 q-3.28 -0.02 -5.27 -2.12 t-2.05 -5.32 q0 -3.26 2.05 -5.33 t5.27 -2.11 z M71.64 10.52 q0.34 0 0.7 0.1 l-0.14 1.18 q-0.22 -0.08 -0.48 -0.08 q-1.46 0 -2.23 0.9 t-0.77 2.34 l0 5.04 l-1.2 0 l0 -6.74 q0 -0.2 -0.1 -2.5 l1.2 0 q0.04 1.38 0.08 1.62 q1.04 -1.86 2.94 -1.86 z M74.86 15.379999999999999 q0 1.66 1.04 2.72 t2.62 1.06 q1.64 0 2.65 -1.08 t1.01 -2.7 q0 -1.6 -1 -2.68 t-2.68 -1.1 q-1.62 0 -2.62 1.08 t-1.02 2.7 z M78.52 10.52 q2.12 0 3.48 1.38 t1.38 3.48 q0 2.14 -1.39 3.49 t-3.47 1.37 q-2.18 -0.02 -3.51 -1.4 t-1.35 -3.46 q0 -2.14 1.37 -3.49 t3.49 -1.37 z M86.88 15.379999999999999 q0 1.58 1.12 2.66 t2.74 1.12 q1.62 0 2.63 -1.07 t1.03 -2.71 q0 -1.6 -1 -2.68 t-2.68 -1.1 q-1.62 0 -2.72 1.1 t-1.12 2.68 z M90.74 10.52 q2.12 0 3.48 1.37 t1.38 3.49 q0 2.12 -1.36 3.48 t-3.5 1.38 q-1.18 0 -2.19 -0.5 t-1.51 -1.36 l-0.04 0 l0 6.18 l-1.2 0 l0 -13.8 l1.2 0 l0 1.62 l0.04 0 q0.48 -0.84 1.5 -1.35 t2.2 -0.51 z"/></g>
			</g>
		</svg>
	